#tb 0: 1/44100
#media_type 0: audio
#codec_id 0: pcm_s16le
#sample_rate 0: 44100
#channel_layout_name 0: stereo
0,          0,          0,     4096,    16384, 0x7dc2dfbb
0,       4096,       4096,     4096,    16384, 0xda39e3c9
0,       8192,       8192,     4096,    16384, 0x6df5e542
0,      12288,      12288,     4096,    16384, 0xfbfade86
0,      16384,      16384,     4096,    16384, 0x246fdffc
0,      20480,      20480,     4096,    16384, 0x8a3adff6
0,      24576,      24576,     4096,    16384, 0x8257dc73
0,      28672,      28672,     4096,    16384, 0xae05e536
0,      32768,      32768,     4096,    16384, 0xe42be3b7
0,      36864,      36864,     4096,    16384, 0x0c9ee2c3
0,      40960,      40960,     4096,    16384, 0xca7057c9
0,      45056,      45056,     4096,    16384, 0x4c21ec54
0,      49152,      49152,     4096,    16384, 0x20b2f662
0,      53248,      53248,     4096,    16384, 0xc8b0e977
0,      57344,      57344,     4096,    16384, 0x7f5a21ab
0,      61440,      61440,     4096,    16384, 0x3173c508
0,      65536,      65536,     4096,    16384, 0x4dffc801
0,      69632,      69632,     4096,    16384, 0x5c1ef10a
0,      73728,      73728,     4096,    16384, 0x08990159
0,      77824,      77824,     4096,    16384, 0xad60d3f2
0,      81920,      81920,     4096,    16384, 0xc6ab1f91
0,      86016,      86016,     4096,    16384, 0x9c5ce6c2
0,      90112,      90112,     4096,    16384, 0xaeca0a67
0,      94208,      94208,     4096,    16384, 0x531ba571
0,      98304,      98304,     4096,    16384, 0x8ceb5cf3
0,     102400,     102400,     4096,    16384, 0xbf1e7000
0,     106496,     106496,     4096,    16384, 0x335b6d26
0,     110592,     110592,     4096,    16384, 0x495eac61
0,     114688,     114688,     4096,    16384, 0x0f84ae29
0,     118784,     118784,     4096,    16384, 0xf79308d3
0,     122880,     122880,     4096,    16384, 0x8cf2c42c
0,     126976,     126976,     4096,    16384, 0xe06be184
0,     131072,     131072,     4096,    16384, 0xbba3f99d
0,     135168,     135168,     4096,    16384, 0x07eed92e
0,     139264,     139264,     4096,    16384, 0x4943eed1
0,     143360,     143360,     4096,    16384, 0x6555e050
0,     147456,     147456,     4096,    16384, 0x0a88d6ba
0,     151552,     151552,     4096,    16384, 0xbcb7130d
0,     155648,     155648,     4096,    16384, 0x637fc5e4
0,     159744,     159744,     4096,    16384, 0xe3a3d6f4
0,     163840,     163840,     4096,    16384, 0x53b5cd96
0,     167936,     167936,     4096,    16384, 0xfd79bc1c
0,     172032,     172032,     4096,    16384, 0x75f3d6c2
0,     176128,     176128,     4096,    16384, 0x29c4e423
0,     180224,     180224,     4096,    16384, 0x9ce5e831
0,     184320,     184320,     4096,    16384, 0x98bba2d9
0,     188416,     188416,     4096,    16384, 0x3b5de705
0,     192512,     192512,     4096,    16384, 0x1105c4d3
0,     196608,     196608,     4096,    16384, 0x76b7daef
0,     200704,     200704,     4096,    16384, 0xef650f5b
0,     204800,     204800,     4096,    16384, 0xfd1ddcac
0,     208896,     208896,     4096,    16384, 0xc60bdf04
0,     212992,     212992,     4096,    16384, 0x2f59e8be
0,     217088,     217088,     4096,    16384, 0x98bba2d9
0,     221184,     221184,     4096,    16384, 0x3b5de705
0,     225280,     225280,     4096,    16384, 0x1105c4d3
0,     229376,     229376,     4096,    16384, 0x76b7daef
0,     233472,     233472,     4096,    16384, 0xef650f5b
0,     237568,     237568,     4096,    16384, 0xfd1ddcac
0,     241664,     241664,     4096,    16384, 0xc60bdf04
0,     245760,     245760,     4096,    16384, 0x2f59e8be
0,     249856,     249856,     4096,    16384, 0x98bba2d9
0,     253952,     253952,     4096,    16384, 0x3b5de705
0,     258048,     258048,     4096,    16384, 0x1105c4d3
0,     262144,     262144,     2456,     9824, 0x1fe31c69
